{
      "notes": [
        {
          "duration": 0.23645833333333333,
          "durationTicks": 227,
          "midi": 62,
          "name": "D4",
          "ticks": 0,
          "time": 0,
          "velocity": 0.6299212598425197
        },
        {
          "duration": 0.23645833333333333,
          "durationTicks": 227,
          "midi": 67,
          "name": "G4",
          "ticks": 0,
          "time": 0,
          "velocity": 0.6299212598425197
        },
        {
          "duration": 0.23645833333333333,
          "durationTicks": 227,
          "midi": 62,
          "name": "D4",
          "ticks": 240,
          "time": 0.25,
          "velocity": 0.6299212598425197
        },
        {
          "duration": 0.23645833333333333,
          "durationTicks": 227,
          "midi": 67,
          "name": "G4",
          "ticks": 240,
          "time": 0.25,
          "velocity": 0.6299212598425197
        },
        {
          "duration": 0.23645833333333333,
          "durationTicks": 227,
          "midi": 62,
          "name": "D4",
          "ticks": 480,
          "time": 0.5,
          "velocity": 0.6299212598425197
        },
        {
          "duration": 0.23645833333333333,
          "durationTicks": 227,
          "midi": 67,
          "name": "G4",
          "ticks": 480,
          "time": 0.5,
          "velocity": 0.6299212598425197
        },
        {
          "duration": 0.23645833333333333,
          "durationTicks": 227,
          "midi": 62,
          "name": "D4",
          "ticks": 720,
          "time": 0.75,
          "velocity": 0.6299212598425197
        },
        {
          "duration": 0.23645833333333333,
          "durationTicks": 227,
          "midi": 67,
          "name": "G4",
          "ticks": 720,
          "time": 0.75,
          "velocity": 0.6299212598425197
        },
        {
          "duration": 0.23645833333333344,
          "durationTicks": 227,
          "midi": 62,
          "name": "D4",
          "ticks": 960,
          "time": 1,
          "velocity": 0.6299212598425197
        },
        {
          "duration": 0.23645833333333344,
          "durationTicks": 227,
          "midi": 67,
          "name": "G4",
          "ticks": 960,
          "time": 1,
          "velocity": 0.6299212598425197
        },
        {
          "duration": 0.23645833333333344,
          "durationTicks": 227,
          "midi": 62,
          "name": "D4",
          "ticks": 1200,
          "time": 1.25,
          "velocity": 0.6299212598425197
        },
        {
          "duration": 0.23645833333333344,
          "durationTicks": 227,
          "midi": 67,
          "name": "G4",
          "ticks": 1200,
          "time": 1.25,
          "velocity": 0.6299212598425197
        },
        {
          "duration": 0.23645833333333344,
          "durationTicks": 227,
          "midi": 62,
          "name": "D4",
          "ticks": 1440,
          "time": 1.5,
          "velocity": 0.6299212598425197
        },
        {
          "duration": 0.23645833333333344,
          "durationTicks": 227,
          "midi": 67,
          "name": "G4",
          "ticks": 1440,
          "time": 1.5,
          "velocity": 0.6299212598425197
        },
        {
          "duration": 0.23645833333333344,
          "durationTicks": 227,
          "midi": 62,
          "name": "D4",
          "ticks": 1680,
          "time": 1.75,
          "velocity": 0.6299212598425197
        },
        {
          "duration": 0.23645833333333344,
          "durationTicks": 227,
          "midi": 67,
          "name": "G4",
          "ticks": 1680,
          "time": 1.75,
          "velocity": 0.6299212598425197
        },
        {
          "duration": 0.23645833333333321,
          "durationTicks": 227,
          "midi": 62,
          "name": "D4",
          "ticks": 1920,
          "time": 2,
          "velocity": 0.6299212598425197
        },
        {
          "duration": 0.23645833333333321,
          "durationTicks": 227,
          "midi": 67,
          "name": "G4",
          "ticks": 1920,
          "time": 2,
          "velocity": 0.6299212598425197
        },
        {
          "duration": 0.23645833333333321,
          "durationTicks": 227,
          "midi": 62,
          "name": "D4",
          "ticks": 2160,
          "time": 2.25,
          "velocity": 0.6299212598425197
        },
        {
          "duration": 0.23645833333333321,
          "durationTicks": 227,
          "midi": 67,
          "name": "G4",
          "ticks": 2160,
          "time": 2.25,
          "velocity": 0.6299212598425197
        },
        {
          "duration": 0.23645833333333321,
          "durationTicks": 227,
          "midi": 62,
          "name": "D4",
          "ticks": 2400,
          "time": 2.5,
          "velocity": 0.6299212598425197
        },
        {
          "duration": 0.23645833333333321,
          "durationTicks": 227,
          "midi": 67,
          "name": "G4",
          "ticks": 2400,
          "time": 2.5,
          "velocity": 0.6299212598425197
        },
        {
          "duration": 0.23645833333333321,
          "durationTicks": 227,
          "midi": 62,
          "name": "D4",
          "ticks": 2640,
          "time": 2.75,
          "velocity": 0.6299212598425197
        },
        {
          "duration": 0.23645833333333321,
          "durationTicks": 227,
          "midi": 67,
          "name": "G4",
          "ticks": 2640,
          "time": 2.75,
          "velocity": 0.6299212598425197
        },
        {
          "duration": 0.23645833333333321,
          "durationTicks": 227,
          "midi": 62,
          "name": "D4",
          "ticks": 2880,
          "time": 3,
          "velocity": 0.6299212598425197
        },
        {
          "duration": 0.23645833333333321,
          "durationTicks": 227,
          "midi": 67,
          "name": "G4",
          "ticks": 2880,
          "time": 3,
          "velocity": 0.6299212598425197
        },
        {
          "duration": 0.23645833333333321,
          "durationTicks": 227,
          "midi": 62,
          "name": "D4",
          "ticks": 3120,
          "time": 3.25,
          "velocity": 0.6299212598425197
        },
        {
          "duration": 0.23645833333333321,
          "durationTicks": 227,
          "midi": 67,
          "name": "G4",
          "ticks": 3120,
          "time": 3.25,
          "velocity": 0.6299212598425197
        },
        {
          "duration": 0.23645833333333321,
          "durationTicks": 227,
          "midi": 62,
          "name": "D4",
          "ticks": 3360,
          "time": 3.5,
          "velocity": 0.6299212598425197
        },
        {
          "duration": 0.23645833333333321,
          "durationTicks": 227,
          "midi": 67,
          "name": "G4",
          "ticks": 3360,
          "time": 3.5,
          "velocity": 0.6299212598425197
        },
        {
          "duration": 0.23645833333333321,
          "durationTicks": 227,
          "midi": 62,
          "name": "D4",
          "ticks": 3600,
          "time": 3.75,
          "velocity": 0.6299212598425197
        },
        {
          "duration": 0.23645833333333321,
          "durationTicks": 227,
          "midi": 67,
          "name": "G4",
          "ticks": 3600,
          "time": 3.75,
          "velocity": 0.6299212598425197
        },
        {
          "duration": 0.23645833333333321,
          "durationTicks": 227,
          "midi": 59,
          "name": "B3",
          "ticks": 4080,
          "time": 4.25,
          "velocity": 0.6299212598425197
        },
        {
          "duration": 0.23645833333333321,
          "durationTicks": 227,
          "midi": 59,
          "name": "B3",
          "ticks": 4320,
          "time": 4.5,
          "velocity": 0.6299212598425197
        },
        {
          "duration": 0.23645833333333321,
          "durationTicks": 227,
          "midi": 59,
          "name": "B3",
          "ticks": 4560,
          "time": 4.75,
          "velocity": 0.6299212598425197
        },
        {
          "duration": 0.23645833333333321,
          "durationTicks": 227,
          "midi": 59,
          "name": "B3",
          "ticks": 4800,
          "time": 5,
          "velocity": 0.6299212598425197
        },
        {
          "duration": 0.23645833333333321,
          "durationTicks": 227,
          "midi": 59,
          "name": "B3",
          "ticks": 5040,
          "time": 5.25,
          "velocity": 0.6299212598425197
        },
        {
          "duration": 0.23645833333333321,
          "durationTicks": 227,
          "midi": 57,
          "name": "A3",
          "ticks": 5280,
          "time": 5.5,
          "velocity": 0.6299212598425197
        },
        {
          "duration": 0.23645833333333321,
          "durationTicks": 227,
          "midi": 59,
          "name": "B3",
          "ticks": 5520,
          "time": 5.75,
          "velocity": 0.6299212598425197
        },
        {
          "duration": 0.23645833333333321,
          "durationTicks": 227,
          "midi": 59,
          "name": "B3",
          "ticks": 6000,
          "time": 6.25,
          "velocity": 0.6299212598425197
        },
        {
          "duration": 0.23645833333333321,
          "durationTicks": 227,
          "midi": 59,
          "name": "B3",
          "ticks": 6240,
          "time": 6.5,
          "velocity": 0.6299212598425197
        },
        {
          "duration": 0.23645833333333321,
          "durationTicks": 227,
          "midi": 59,
          "name": "B3",
          "ticks": 6480,
          "time": 6.75,
          "velocity": 0.6299212598425197
        },
        {
          "duration": 0.23645833333333321,
          "durationTicks": 227,
          "midi": 59,
          "name": "B3",
          "ticks": 6720,
          "time": 7,
          "velocity": 0.6299212598425197
        },
        {
          "duration": 0.23645833333333321,
          "durationTicks": 227,
          "midi": 59,
          "name": "B3",
          "ticks": 6960,
          "time": 7.25,
          "velocity": 0.6299212598425197
        },
        {
          "duration": 0.23645833333333321,
          "durationTicks": 227,
          "midi": 57,
          "name": "A3",
          "ticks": 7200,
          "time": 7.5,
          "velocity": 0.6299212598425197
        },
        {
          "duration": 0.23645833333333321,
          "durationTicks": 227,
          "midi": 59,
          "name": "B3",
          "ticks": 7440,
          "time": 7.75,
          "velocity": 0.6299212598425197
        },
        {
          "duration": 0.23645833333333321,
          "durationTicks": 227,
          "midi": 59,
          "name": "B3",
          "ticks": 7920,
          "time": 8.25,
          "velocity": 0.6299212598425197
        },
        {
          "duration": 0.23645833333333321,
          "durationTicks": 227,
          "midi": 59,
          "name": "B3",
          "ticks": 8160,
          "time": 8.5,
          "velocity": 0.6299212598425197
        },
        {
          "duration": 0.23645833333333321,
          "durationTicks": 227,
          "midi": 59,
          "name": "B3",
          "ticks": 8400,
          "time": 8.75,
          "velocity": 0.6299212598425197
        },
        {
          "duration": 0.23645833333333321,
          "durationTicks": 227,
          "midi": 59,
          "name": "B3",
          "ticks": 8640,
          "time": 9,
          "velocity": 0.6299212598425197
        },
        {
          "duration": 0.23645833333333321,
          "durationTicks": 227,
          "midi": 59,
          "name": "B3",
          "ticks": 8880,
          "time": 9.25,
          "velocity": 0.6299212598425197
        },
        {
          "duration": 0.23645833333333321,
          "durationTicks": 227,
          "midi": 57,
          "name": "A3",
          "ticks": 9120,
          "time": 9.5,
          "velocity": 0.6299212598425197
        },
        {
          "duration": 0.23645833333333321,
          "durationTicks": 227,
          "midi": 57,
          "name": "A3",
          "ticks": 9360,
          "time": 9.75,
          "velocity": 0.6299212598425197
        },
        {
          "duration": 0.23645833333333321,
          "durationTicks": 227,
          "midi": 57,
          "name": "A3",
          "ticks": 9840,
          "time": 10.25,
          "velocity": 0.6299212598425197
        },
        {
          "duration": 0.23645833333333321,
          "durationTicks": 227,
          "midi": 57,
          "name": "A3",
          "ticks": 10080,
          "time": 10.5,
          "velocity": 0.6299212598425197
        },
        {
          "duration": 0.23645833333333321,
          "durationTicks": 227,
          "midi": 55,
          "name": "G3",
          "ticks": 10320,
          "time": 10.75,
          "velocity": 0.6299212598425197
        },
        {
          "duration": 0.35520833333333357,
          "durationTicks": 341,
          "midi": 55,
          "name": "G3",
          "ticks": 10560,
          "time": 11,
          "velocity": 0.6299212598425197
        },
        {
          "duration": 0.35520833333333357,
          "durationTicks": 341,
          "midi": 62,
          "name": "D4",
          "ticks": 10920,
          "time": 11.375,
          "velocity": 0.6299212598425197
        },
        {
          "duration": 0.23645833333333321,
          "durationTicks": 227,
          "midi": 59,
          "name": "B3",
          "ticks": 11280,
          "time": 11.75,
          "velocity": 0.6299212598425197
        },
        {
          "duration": 0.23645833333333321,
          "durationTicks": 227,
          "midi": 59,
          "name": "B3",
          "ticks": 11760,
          "time": 12.25,
          "velocity": 0.6299212598425197
        },
        {
          "duration": 0.23645833333333321,
          "durationTicks": 227,
          "midi": 59,
          "name": "B3",
          "ticks": 12000,
          "time": 12.5,
          "velocity": 0.6299212598425197
        },
        {
          "duration": 0.23645833333333321,
          "durationTicks": 227,
          "midi": 59,
          "name": "B3",
          "ticks": 12240,
          "time": 12.75,
          "velocity": 0.6299212598425197
        },
        {
          "duration": 0.23645833333333321,
          "durationTicks": 227,
          "midi": 59,
          "name": "B3",
          "ticks": 12480,
          "time": 13,
          "velocity": 0.6299212598425197
        },
        {
          "duration": 0.23645833333333321,
          "durationTicks": 227,
          "midi": 59,
          "name": "B3",
          "ticks": 12720,
          "time": 13.25,
          "velocity": 0.6299212598425197
        },
        {
          "duration": 0.23645833333333321,
          "durationTicks": 227,
          "midi": 57,
          "name": "A3",
          "ticks": 12960,
          "time": 13.5,
          "velocity": 0.6299212598425197
        },
        {
          "duration": 0.23645833333333321,
          "durationTicks": 227,
          "midi": 59,
          "name": "B3",
          "ticks": 13200,
          "time": 13.75,
          "velocity": 0.6299212598425197
        },
        {
          "duration": 0.23645833333333321,
          "durationTicks": 227,
          "midi": 59,
          "name": "B3",
          "ticks": 13680,
          "time": 14.25,
          "velocity": 0.6299212598425197
        },
        {
          "duration": 0.23645833333333321,
          "durationTicks": 227,
          "midi": 59,
          "name": "B3",
          "ticks": 13920,
          "time": 14.5,
          "velocity": 0.6299212598425197
        },
        {
          "duration": 0.23645833333333321,
          "durationTicks": 227,
          "midi": 59,
          "name": "B3",
          "ticks": 14160,
          "time": 14.75,
          "velocity": 0.6299212598425197
        },
        {
          "duration": 0.23645833333333321,
          "durationTicks": 227,
          "midi": 59,
          "name": "B3",
          "ticks": 14400,
          "time": 15,
          "velocity": 0.6299212598425197
        },
        {
          "duration": 0.23645833333333321,
          "durationTicks": 227,
          "midi": 59,
          "name": "B3",
          "ticks": 14640,
          "time": 15.25,
          "velocity": 0.6299212598425197
        },
        {
          "duration": 0.23645833333333321,
          "durationTicks": 227,
          "midi": 57,
          "name": "A3",
          "ticks": 14880,
          "time": 15.5,
          "velocity": 0.6299212598425197
        },
        {
          "duration": 0.23645833333333321,
          "durationTicks": 227,
          "midi": 59,
          "name": "B3",
          "ticks": 15120,
          "time": 15.75,
          "velocity": 0.6299212598425197
        },
        {
          "duration": 0.236458333333335,
          "durationTicks": 227,
          "midi": 59,
          "name": "B3",
          "ticks": 15600,
          "time": 16.25,
          "velocity": 0.6299212598425197
        },
        {
          "duration": 0.236458333333335,
          "durationTicks": 227,
          "midi": 59,
          "name": "B3",
          "ticks": 15840,
          "time": 16.5,
          "velocity": 0.6299212598425197
        },
        {
          "duration": 0.236458333333335,
          "durationTicks": 227,
          "midi": 59,
          "name": "B3",
          "ticks": 16080,
          "time": 16.75,
          "velocity": 0.6299212598425197
        },
        {
          "duration": 0.236458333333335,
          "durationTicks": 227,
          "midi": 59,
          "name": "B3",
          "ticks": 16320,
          "time": 17,
          "velocity": 0.6299212598425197
        },
        {
          "duration": 0.236458333333335,
          "durationTicks": 227,
          "midi": 59,
          "name": "B3",
          "ticks": 16560,
          "time": 17.25,
          "velocity": 0.6299212598425197
        },
        {
          "duration": 0.236458333333335,
          "durationTicks": 227,
          "midi": 57,
          "name": "A3",
          "ticks": 16800,
          "time": 17.5,
          "velocity": 0.6299212598425197
        },
        {
          "duration": 0.236458333333335,
          "durationTicks": 227,
          "midi": 57,
          "name": "A3",
          "ticks": 17040,
          "time": 17.75,
          "velocity": 0.6299212598425197
        },
        {
          "duration": 0.236458333333335,
          "durationTicks": 227,
          "midi": 57,
          "name": "A3",
          "ticks": 17520,
          "time": 18.25,
          "velocity": 0.6299212598425197
        },
        {
          "duration": 0.236458333333335,
          "durationTicks": 227,
          "midi": 57,
          "name": "A3",
          "ticks": 17760,
          "time": 18.5,
          "velocity": 0.6299212598425197
        },
        {
          "duration": 0.236458333333335,
          "durationTicks": 227,
          "midi": 55,
          "name": "G3",
          "ticks": 18000,
          "time": 18.75,
          "velocity": 0.6299212598425197
        },
        {
          "duration": 0.35520833333333357,
          "durationTicks": 341,
          "midi": 55,
          "name": "G3",
          "ticks": 18240,
          "time": 19,
          "velocity": 0.6299212598425197
        },
        {
          "duration": 0.35520833333333357,
          "durationTicks": 341,
          "midi": 62,
          "name": "D4",
          "ticks": 18600,
          "time": 19.375,
          "velocity": 0.6299212598425197
        },
        {
          "duration": 0.236458333333335,
          "durationTicks": 227,
          "midi": 59,
          "name": "B3",
          "ticks": 18960,
          "time": 19.75,
          "velocity": 0.6299212598425197
        },
        {
          "duration": 0.47395833333333215,
          "durationTicks": 455,
          "midi": 62,
          "name": "D4",
          "ticks": 19680,
          "time": 20.5,
          "velocity": 0.6299212598425197
        },
        {
          "duration": 0.11770833333333286,
          "durationTicks": 113,
          "midi": 62,
          "name": "D4",
          "ticks": 20160,
          "time": 21,
          "velocity": 0.6299212598425197
        },
        {
          "duration": 0.236458333333335,
          "durationTicks": 227,
          "midi": 59,
          "name": "B3",
          "ticks": 20280,
          "time": 21.125,
          "velocity": 0.6299212598425197
        },
        {
          "duration": 0.35520833333333357,
          "durationTicks": 341,
          "midi": 57,
          "name": "A3",
          "ticks": 20520,
          "time": 21.375,
          "velocity": 0.6299212598425197
        },
        {
          "duration": 0.236458333333335,
          "durationTicks": 227,
          "midi": 55,
          "name": "G3",
          "ticks": 20880,
          "time": 21.75,
          "velocity": 0.6299212598425197
        },
        {
          "duration": 0.47395833333333215,
          "durationTicks": 455,
          "midi": 62,
          "name": "D4",
          "ticks": 21120,
          "time": 22,
          "velocity": 0.6299212598425197
        },
        {
          "duration": 0.47395833333333215,
          "durationTicks": 455,
          "midi": 62,
          "name": "D4",
          "ticks": 21600,
          "time": 22.5,
          "velocity": 0.6299212598425197
        },
        {
          "duration": 0.11770833333333286,
          "durationTicks": 113,
          "midi": 62,
          "name": "D4",
          "ticks": 22080,
          "time": 23,
          "velocity": 0.6299212598425197
        },
        {
          "duration": 0.236458333333335,
          "durationTicks": 227,
          "midi": 59,
          "name": "B3",
          "ticks": 22200,
          "time": 23.125,
          "velocity": 0.6299212598425197
        },
        {
          "duration": 0.35520833333333357,
          "durationTicks": 341,
          "midi": 57,
          "name": "A3",
          "ticks": 22440,
          "time": 23.375,
          "velocity": 0.6299212598425197
        },
        {
          "duration": 0.236458333333335,
          "durationTicks": 227,
          "midi": 55,
          "name": "G3",
          "ticks": 22800,
          "time": 23.75,
          "velocity": 0.6299212598425197
        },
        {
          "duration": 0.47395833333333215,
          "durationTicks": 455,
          "midi": 62,
          "name": "D4",
          "ticks": 23040,
          "time": 24,
          "velocity": 0.6299212598425197
        },
        {
          "duration": 0.47395833333333215,
          "durationTicks": 455,
          "midi": 62,
          "name": "D4",
          "ticks": 23520,
          "time": 24.5,
          "velocity": 0.6299212598425197
        },
        {
          "duration": 0.11770833333333286,
          "durationTicks": 113,
          "midi": 62,
          "name": "D4",
          "ticks": 24000,
          "time": 25,
          "velocity": 0.6299212598425197
        },
        {
          "duration": 0.236458333333335,
          "durationTicks": 227,
          "midi": 59,
          "name": "B3",
          "ticks": 24120,
          "time": 25.125,
          "velocity": 0.6299212598425197
        },
        {
          "duration": 0.35520833333333357,
          "durationTicks": 341,
          "midi": 57,
          "name": "A3",
          "ticks": 24360,
          "time": 25.375,
          "velocity": 0.6299212598425197
        },
        {
          "duration": 0.236458333333335,
          "durationTicks": 227,
          "midi": 55,
          "name": "G3",
          "ticks": 24720,
          "time": 25.75,
          "velocity": 0.6299212598425197
        },
        {
          "duration": 0.236458333333335,
          "durationTicks": 227,
          "midi": 67,
          "name": "G4",
          "ticks": 24960,
          "time": 26,
          "velocity": 0.6299212598425197
        },
        {
          "duration": 0.236458333333335,
          "durationTicks": 227,
          "midi": 67,
          "name": "G4",
          "ticks": 25200,
          "time": 26.25,
          "velocity": 0.6299212598425197
        },
        {
          "duration": 0.236458333333335,
          "durationTicks": 227,
          "midi": 67,
          "name": "G4",
          "ticks": 25440,
          "time": 26.5,
          "velocity": 0.6299212598425197
        },
        {
          "duration": 0.236458333333335,
          "durationTicks": 227,
          "midi": 67,
          "name": "G4",
          "ticks": 25680,
          "time": 26.75,
          "velocity": 0.6299212598425197
        },
        {
          "duration": 0.236458333333335,
          "durationTicks": 227,
          "midi": 67,
          "name": "G4",
          "ticks": 25920,
          "time": 27,
          "velocity": 0.6299212598425197
        },
        {
          "duration": 0.236458333333335,
          "durationTicks": 227,
          "midi": 67,
          "name": "G4",
          "ticks": 26160,
          "time": 27.25,
          "velocity": 0.6299212598425197
        },
        {
          "duration": 0.236458333333335,
          "durationTicks": 227,
          "midi": 69,
          "name": "A4",
          "ticks": 26400,
          "time": 27.5,
          "velocity": 0.6299212598425197
        },
        {
          "duration": 0.236458333333335,
          "durationTicks": 227,
          "midi": 71,
          "name": "B4",
          "ticks": 26640,
          "time": 27.75,
          "velocity": 0.6299212598425197
        },
        {
          "duration": 0.47395833333333215,
          "durationTicks": 455,
          "midi": 67,
          "name": "G4",
          "ticks": 27360,
          "time": 28.5,
          "velocity": 0.6299212598425197
        },
        {
          "duration": 0.11770833333333286,
          "durationTicks": 113,
          "midi": 59,
          "name": "B3",
          "ticks": 27840,
          "time": 29,
          "velocity": 0.6299212598425197
        },
        {
          "duration": 0.236458333333335,
          "durationTicks": 227,
          "midi": 62,
          "name": "D4",
          "ticks": 27960,
          "time": 29.125,
          "velocity": 0.6299212598425197
        },
        {
          "duration": 0.35520833333333357,
          "durationTicks": 341,
          "midi": 67,
          "name": "G4",
          "ticks": 28200,
          "time": 29.375,
          "velocity": 0.6299212598425197
        },
        {
          "duration": 0.236458333333335,
          "durationTicks": 227,
          "midi": 62,
          "name": "D4",
          "ticks": 28560,
          "time": 29.75,
          "velocity": 0.6299212598425197
        },
        {
          "duration": 0.236458333333335,
          "durationTicks": 227,
          "midi": 59,
          "name": "B3",
          "ticks": 29520,
          "time": 30.75,
          "velocity": 0.6299212598425197
        },
        {
          "duration": 0.11770833333333286,
          "durationTicks": 113,
          "midi": 59,
          "name": "B3",
          "ticks": 29760,
          "time": 31,
          "velocity": 0.6299212598425197
        },
        {
          "duration": 0.236458333333335,
          "durationTicks": 227,
          "midi": 62,
          "name": "D4",
          "ticks": 29880,
          "time": 31.125,
          "velocity": 0.6299212598425197
        },
        {
          "duration": 0.35520833333333357,
          "durationTicks": 341,
          "midi": 71,
          "name": "B4",
          "ticks": 30120,
          "time": 31.375,
          "velocity": 0.6299212598425197
        },
        {
          "duration": 0.236458333333335,
          "durationTicks": 227,
          "midi": 67,
          "name": "G4",
          "ticks": 30480,
          "time": 31.75,
          "velocity": 0.6299212598425197
        },
        {
          "duration": 0.23645833333333144,
          "durationTicks": 227,
          "midi": 67,
          "name": "G4",
          "ticks": 31440,
          "time": 32.75,
          "velocity": 0.6299212598425197
        },
        {
          "duration": 0.23645833333333144,
          "durationTicks": 227,
          "midi": 71,
          "name": "B4",
          "ticks": 31680,
          "time": 33,
          "velocity": 0.6299212598425197
        },
        {
          "duration": 0.23645833333333144,
          "durationTicks": 227,
          "midi": 72,
          "name": "C5",
          "ticks": 31920,
          "time": 33.25,
          "velocity": 0.6299212598425197
        },
        {
          "duration": 0.23645833333333144,
          "durationTicks": 227,
          "midi": 71,
          "name": "B4",
          "ticks": 32160,
          "time": 33.5,
          "velocity": 0.6299212598425197
        },
        {
          "duration": 0.23645833333333144,
          "durationTicks": 227,
          "midi": 67,
          "name": "G4",
          "ticks": 32400,
          "time": 33.75,
          "velocity": 0.6299212598425197
        },
        {
          "duration": 0.23645833333333144,
          "durationTicks": 227,
          "midi": 67,
          "name": "G4",
          "ticks": 33360,
          "time": 34.75,
          "velocity": 0.6299212598425197
        },
        {
          "duration": 0.23645833333333144,
          "durationTicks": 227,
          "midi": 71,
          "name": "B4",
          "ticks": 33600,
          "time": 35,
          "velocity": 0.6299212598425197
        },
        {
          "duration": 0.23645833333333144,
          "durationTicks": 227,
          "midi": 69,
          "name": "A4",
          "ticks": 33840,
          "time": 35.25,
          "velocity": 0.6299212598425197
        },
        {
          "duration": 0.23645833333333144,
          "durationTicks": 227,
          "midi": 69,
          "name": "A4",
          "ticks": 34080,
          "time": 35.5,
          "velocity": 0.6299212598425197
        },
        {
          "duration": 0.23645833333333144,
          "durationTicks": 227,
          "midi": 67,
          "name": "G4",
          "ticks": 34320,
          "time": 35.75,
          "velocity": 0.6299212598425197
        },
        {
          "duration": 0.4739583333333357,
          "durationTicks": 455,
          "midi": 67,
          "name": "G4",
          "ticks": 35040,
          "time": 36.5,
          "velocity": 0.6299212598425197
        },
        {
          "duration": 0.11770833333333286,
          "durationTicks": 113,
          "midi": 59,
          "name": "B3",
          "ticks": 35520,
          "time": 37,
          "velocity": 0.6299212598425197
        },
        {
          "duration": 0.23645833333333144,
          "durationTicks": 227,
          "midi": 62,
          "name": "D4",
          "ticks": 35640,
          "time": 37.125,
          "velocity": 0.6299212598425197
        },
        {
          "duration": 0.35520833333333,
          "durationTicks": 341,
          "midi": 67,
          "name": "G4",
          "ticks": 35880,
          "time": 37.375,
          "velocity": 0.6299212598425197
        },
        {
          "duration": 0.23645833333333144,
          "durationTicks": 227,
          "midi": 62,
          "name": "D4",
          "ticks": 36240,
          "time": 37.75,
          "velocity": 0.6299212598425197
        },
        {
          "duration": 0.23645833333333144,
          "durationTicks": 227,
          "midi": 59,
          "name": "B3",
          "ticks": 37440,
          "time": 39,
          "velocity": 0.6299212598425197
        },
        {
          "duration": 0.23645833333333144,
          "durationTicks": 227,
          "midi": 62,
          "name": "D4",
          "ticks": 37680,
          "time": 39.25,
          "velocity": 0.6299212598425197
        },
        {
          "duration": 0.7114583333333329,
          "durationTicks": 683,
          "midi": 71,
          "name": "B4",
          "ticks": 37920,
          "time": 39.5,
          "velocity": 0.6299212598425197
        },
        {
          "duration": 0.23645833333333144,
          "durationTicks": 227,
          "midi": 67,
          "name": "G4",
          "ticks": 38640,
          "time": 40.25,
          "velocity": 0.6299212598425197
        },
        {
          "duration": 0.23645833333333144,
          "durationTicks": 227,
          "midi": 67,
          "name": "G4",
          "ticks": 39120,
          "time": 40.75,
          "velocity": 0.6299212598425197
        },
        {
          "duration": 0.23645833333333144,
          "durationTicks": 227,
          "midi": 71,
          "name": "B4",
          "ticks": 39360,
          "time": 41,
          "velocity": 0.6299212598425197
        },
        {
          "duration": 0.23645833333333144,
          "durationTicks": 227,
          "midi": 72,
          "name": "C5",
          "ticks": 39600,
          "time": 41.25,
          "velocity": 0.6299212598425197
        },
        {
          "duration": 0.23645833333333144,
          "durationTicks": 227,
          "midi": 71,
          "name": "B4",
          "ticks": 39840,
          "time": 41.5,
          "velocity": 0.6299212598425197
        },
        {
          "duration": 0.23645833333333144,
          "durationTicks": 227,
          "midi": 67,
          "name": "G4",
          "ticks": 40080,
          "time": 41.75,
          "velocity": 0.6299212598425197
        },
        {
          "duration": 0.23645833333333144,
          "durationTicks": 227,
          "midi": 67,
          "name": "G4",
          "ticks": 41040,
          "time": 42.75,
          "velocity": 0.6299212598425197
        },
        {
          "duration": 0.23645833333333144,
          "durationTicks": 227,
          "midi": 71,
          "name": "B4",
          "ticks": 41280,
          "time": 43,
          "velocity": 0.6299212598425197
        },
        {
          "duration": 0.23645833333333144,
          "durationTicks": 227,
          "midi": 69,
          "name": "A4",
          "ticks": 41520,
          "time": 43.25,
          "velocity": 0.6299212598425197
        },
        {
          "duration": 0.23645833333333144,
          "durationTicks": 227,
          "midi": 69,
          "name": "A4",
          "ticks": 41760,
          "time": 43.5,
          "velocity": 0.6299212598425197
        },
        {
          "duration": 0.23645833333333144,
          "durationTicks": 227,
          "midi": 67,
          "name": "G4",
          "ticks": 42000,
          "time": 43.75,
          "velocity": 0.6299212598425197
        },
        {
          "duration": 0.4739583333333357,
          "durationTicks": 455,
          "midi": 67,
          "name": "G4",
          "ticks": 42720,
          "time": 44.5,
          "velocity": 0.6299212598425197
        },
        {
          "duration": 0.11770833333333286,
          "durationTicks": 113,
          "midi": 59,
          "name": "B3",
          "ticks": 43200,
          "time": 45,
          "velocity": 0.6299212598425197
        },
        {
          "duration": 0.23645833333333144,
          "durationTicks": 227,
          "midi": 62,
          "name": "D4",
          "ticks": 43320,
          "time": 45.125,
          "velocity": 0.6299212598425197
        },
        {
          "duration": 0.35520833333333,
          "durationTicks": 341,
          "midi": 67,
          "name": "G4",
          "ticks": 43560,
          "time": 45.375,
          "velocity": 0.6299212598425197
        },
        {
          "duration": 0.23645833333333144,
          "durationTicks": 227,
          "midi": 62,
          "name": "D4",
          "ticks": 43920,
          "time": 45.75,
          "velocity": 0.6299212598425197
        },
        {
          "duration": 0.23645833333333144,
          "durationTicks": 227,
          "midi": 59,
          "name": "B3",
          "ticks": 44880,
          "time": 46.75,
          "velocity": 0.6299212598425197
        },
        {
          "duration": 0.11770833333333286,
          "durationTicks": 113,
          "midi": 59,
          "name": "B3",
          "ticks": 45120,
          "time": 47,
          "velocity": 0.6299212598425197
        },
        {
          "duration": 0.23645833333333144,
          "durationTicks": 227,
          "midi": 62,
          "name": "D4",
          "ticks": 45240,
          "time": 47.125,
          "velocity": 0.6299212598425197
        },
        {
          "duration": 0.35520833333333,
          "durationTicks": 341,
          "midi": 71,
          "name": "B4",
          "ticks": 45480,
          "time": 47.375,
          "velocity": 0.6299212598425197
        },
        {
          "duration": 0.23645833333333144,
          "durationTicks": 227,
          "midi": 67,
          "name": "G4",
          "ticks": 45840,
          "time": 47.75,
          "velocity": 0.6299212598425197
        },
        {
          "duration": 0.23645833333333144,
          "durationTicks": 227,
          "midi": 67,
          "name": "G4",
          "ticks": 46800,
          "time": 48.75,
          "velocity": 0.6299212598425197
        },
        {
          "duration": 0.23645833333333144,
          "durationTicks": 227,
          "midi": 71,
          "name": "B4",
          "ticks": 47040,
          "time": 49,
          "velocity": 0.6299212598425197
        },
        {
          "duration": 0.23645833333333144,
          "durationTicks": 227,
          "midi": 72,
          "name": "C5",
          "ticks": 47280,
          "time": 49.25,
          "velocity": 0.6299212598425197
        },
        {
          "duration": 0.23645833333333144,
          "durationTicks": 227,
          "midi": 71,
          "name": "B4",
          "ticks": 47520,
          "time": 49.5,
          "velocity": 0.6299212598425197
        },
        {
          "duration": 0.23645833333333144,
          "durationTicks": 227,
          "midi": 67,
          "name": "G4",
          "ticks": 47760,
          "time": 49.75,
          "velocity": 0.6299212598425197
        },
        {
          "duration": 0.23645833333333144,
          "durationTicks": 227,
          "midi": 67,
          "name": "G4",
          "ticks": 48720,
          "time": 50.75,
          "velocity": 0.6299212598425197
        },
        {
          "duration": 0.23645833333333144,
          "durationTicks": 227,
          "midi": 71,
          "name": "B4",
          "ticks": 48960,
          "time": 51,
          "velocity": 0.6299212598425197
        },
        {
          "duration": 0.23645833333333144,
          "durationTicks": 227,
          "midi": 69,
          "name": "A4",
          "ticks": 49200,
          "time": 51.25,
          "velocity": 0.6299212598425197
        },
        {
          "duration": 0.23645833333333144,
          "durationTicks": 227,
          "midi": 69,
          "name": "A4",
          "ticks": 49440,
          "time": 51.5,
          "velocity": 0.6299212598425197
        },
        {
          "duration": 0.23645833333333144,
          "durationTicks": 227,
          "midi": 67,
          "name": "G4",
          "ticks": 49680,
          "time": 51.75,
          "velocity": 0.6299212598425197
        },
        {
          "duration": 0.4739583333333357,
          "durationTicks": 455,
          "midi": 67,
          "name": "G4",
          "ticks": 50400,
          "time": 52.5,
          "velocity": 0.6299212598425197
        },
        {
          "duration": 0.11770833333333286,
          "durationTicks": 113,
          "midi": 59,
          "name": "B3",
          "ticks": 50880,
          "time": 53,
          "velocity": 0.6299212598425197
        },
        {
          "duration": 0.23645833333333144,
          "durationTicks": 227,
          "midi": 62,
          "name": "D4",
          "ticks": 51000,
          "time": 53.125,
          "velocity": 0.6299212598425197
        },
        {
          "duration": 0.35520833333333,
          "durationTicks": 341,
          "midi": 67,
          "name": "G4",
          "ticks": 51240,
          "time": 53.375,
          "velocity": 0.6299212598425197
        },
        {
          "duration": 0.23645833333333144,
          "durationTicks": 227,
          "midi": 62,
          "name": "D4",
          "ticks": 51600,
          "time": 53.75,
          "velocity": 0.6299212598425197
        },
        {
          "duration": 0.23645833333333144,
          "durationTicks": 227,
          "midi": 59,
          "name": "B3",
          "ticks": 52800,
          "time": 55,
          "velocity": 0.6299212598425197
        },
        {
          "duration": 0.23645833333333144,
          "durationTicks": 227,
          "midi": 62,
          "name": "D4",
          "ticks": 53040,
          "time": 55.25,
          "velocity": 0.6299212598425197
        },
        {
          "duration": 0.7114583333333329,
          "durationTicks": 683,
          "midi": 71,
          "name": "B4",
          "ticks": 53280,
          "time": 55.5,
          "velocity": 0.6299212598425197
        },
        {
          "duration": 0.23645833333333144,
          "durationTicks": 227,
          "midi": 67,
          "name": "G4",
          "ticks": 54000,
          "time": 56.25,
          "velocity": 0.6299212598425197
        },
        {
          "duration": 0.23645833333333144,
          "durationTicks": 227,
          "midi": 67,
          "name": "G4",
          "ticks": 54480,
          "time": 56.75,
          "velocity": 0.6299212598425197
        },
        {
          "duration": 0.23645833333333144,
          "durationTicks": 227,
          "midi": 71,
          "name": "B4",
          "ticks": 54720,
          "time": 57,
          "velocity": 0.6299212598425197
        },
        {
          "duration": 0.23645833333333144,
          "durationTicks": 227,
          "midi": 72,
          "name": "C5",
          "ticks": 54960,
          "time": 57.25,
          "velocity": 0.6299212598425197
        },
        {
          "duration": 0.23645833333333144,
          "durationTicks": 227,
          "midi": 71,
          "name": "B4",
          "ticks": 55200,
          "time": 57.5,
          "velocity": 0.6299212598425197
        },
        {
          "duration": 0.23645833333333144,
          "durationTicks": 227,
          "midi": 67,
          "name": "G4",
          "ticks": 55440,
          "time": 57.75,
          "velocity": 0.6299212598425197
        },
        {
          "duration": 0.23645833333333144,
          "durationTicks": 227,
          "midi": 67,
          "name": "G4",
          "ticks": 56400,
          "time": 58.75,
          "velocity": 0.6299212598425197
        },
        {
          "duration": 0.23645833333333144,
          "durationTicks": 227,
          "midi": 71,
          "name": "B4",
          "ticks": 56640,
          "time": 59,
          "velocity": 0.6299212598425197
        },
        {
          "duration": 0.23645833333333144,
          "durationTicks": 227,
          "midi": 69,
          "name": "A4",
          "ticks": 56880,
          "time": 59.25,
          "velocity": 0.6299212598425197
        },
        {
          "duration": 0.23645833333333144,
          "durationTicks": 227,
          "midi": 69,
          "name": "A4",
          "ticks": 57120,
          "time": 59.5,
          "velocity": 0.6299212598425197
        },
        {
          "duration": 0.23645833333333144,
          "durationTicks": 227,
          "midi": 67,
          "name": "G4",
          "ticks": 57360,
          "time": 59.75,
          "velocity": 0.6299212598425197
        }
      ]
}